<svg width="180" height="51" viewBox="0 0 180 51" fill="none" xmlns="http://www.w3.org/2000/svg">
<path d="M6.80709 47.7794L6.33351 47.8238L5.69043 47.9184L5.51366 47.9191L4.20276 48.1119L3.97288 48.0952L3.86594 47.8835L3.90739 47.65L3.92412 47.4201L3.91902 47.0418L3.91027 46.6388L3.95464 46.2533L3.92116 45.8539L3.96626 45.6451L3.93351 45.4225L3.95751 45.2421L3.93205 45.0689L3.95241 44.8638L3.95168 44.687L3.92548 44.3371L3.92765 44.0083L3.99748 43.7959L3.98874 43.3928L3.96327 43.2197L3.98363 43.0146L3.98581 42.6857L3.96762 42.5621L4.02289 42.2507L3.97633 42.1059L4.00324 41.7735L4.05197 41.5894L4.05124 41.4127L4.07087 41.0307L4.09487 40.8503L4.1174 40.3164L4.06283 39.9454L4.11083 39.5845L4.10573 39.2062L4.15446 39.0222L4.15009 38.8207L4.14936 38.6439L4.12389 38.4708L4.201 38.3078L4.24026 37.544L4.28536 37.3352L4.30936 37.1548L4.26279 37.01L4.28606 36.6528L4.33043 36.2673L4.25329 35.5711L4.30203 35.387L4.25036 34.864L4.32747 34.701L4.34783 34.4959L4.3471 34.3191L4.30053 34.1743L4.2998 33.9976L4.35144 33.6615L4.34997 33.3079L4.40235 33.1486L4.37688 32.9755L4.42561 32.7914L4.37905 32.6466L4.40305 32.4662L4.38049 32.141L4.40813 31.9854L4.41104 31.8333L4.38847 31.5081L4.39138 31.3561L4.31644 31.1902L4.34699 30.8825L4.39936 30.7232L4.40227 30.5712L4.57831 30.3937L4.99878 30.3318L5.14355 30.2852L5.32032 30.2845L5.61349 30.2161L5.78663 30.1907L5.98814 30.1863L6.23548 30.1499L6.77598 30.0451L8.62739 29.7475L9.1999 29.6886L9.40141 29.6842L10.1151 29.554L10.6592 29.4739L10.8782 29.4165L11.1291 29.4048L11.3554 29.3968L11.5045 29.5518L11.4703 29.8347L11.4922 29.9831L11.5337 30.6088L11.5555 30.7572L11.5067 30.9412L11.5075 31.118L11.5046 31.27L11.4849 31.652L11.5141 31.8498L11.4661 32.2107L11.4631 32.3627L11.4362 32.6952L11.1925 32.7563L10.1537 32.9091L9.86055 32.9775L8.25285 33.2139L7.66287 33.326L7.63233 33.6337L7.63306 33.8105L7.684 34.1568L7.63162 34.3161L7.66073 34.514L7.65565 34.9948L7.65712 35.3484L7.63385 35.7055L7.60985 35.886L7.66369 36.0802L7.62587 36.3384L7.64189 36.7909L8.08709 36.7254L8.95642 36.6228L9.41909 36.5043L10.0622 36.4097L10.2673 36.43L10.4448 36.6061L10.439 36.9102L10.4681 37.108L10.4587 37.3874L10.4354 37.7446L10.4114 37.925L10.3918 38.3069L10.4172 38.48L10.3721 38.6888L10.3736 39.0424L10.3576 39.449L10.3591 39.8026L10.3169 39.8593L10.0695 39.8957L9.70218 39.975L9.47957 40.0077L8.86487 40.1234L8.44075 40.1605L8.16868 40.2006L7.85078 40.2726L7.62817 40.3053L7.56926 40.592L7.54235 40.9244L7.54528 41.6315L7.50746 41.8898L7.49074 42.1197L7.50239 42.3706L7.47838 42.551L7.46967 43.0072L7.46533 43.6648L7.49443 43.8627L7.60792 43.9471L7.96147 43.9456L9.42077 43.7309L9.77068 43.7047L10.3185 43.6494L11.0074 43.5228L11.1914 43.5716L11.1958 43.7731L11.1856 43.8757L11.1762 44.155L11.1805 44.3565L11.1616 44.9152L11.2089 45.2367L11.1849 45.4172L11.1573 45.5728L11.158 45.7496L11.1384 46.1315L11.1755 46.5557L11.1588 46.7855L11.1246 47.0685L8.77489 47.4141L8.38279 47.4971L8.05761 47.5196L7.91284 47.5662L7.39343 47.6426L7.00133 47.7256L6.80709 47.7794ZM28.5565 46.8797L27.8356 46.9605L27.5846 46.9721L27.4362 46.994L27.2595 46.9947L27.0994 46.7656L27.0703 46.5677L27.135 45.1178L27.1583 44.7607L26.0169 44.9033L25.5011 45.0044L23.2605 45.2329L22.8931 45.3122L22.7236 45.3624L22.5221 45.3668L22.2821 45.4526L21.8827 45.4861L21.7379 45.5327L21.5648 45.5581L21.3211 45.6192L21.1479 45.6447L20.9464 45.6491L19.6566 45.8135L18.9503 45.9932L17.4022 46.1199L17.0348 46.1992L16.8653 46.2494L16.116 46.3091L15.8723 46.3702L15.6461 46.3782L15.2998 46.4291L15.1303 46.4793L13.8194 46.6721L13.6499 46.7223L13.367 46.6882L13.2316 46.4554L13.2345 46.3033L13.1945 46.0313L13.2331 45.9498L13.2178 45.6741L13.1712 45.5293L13.2309 45.4194L13.2229 45.1932L13.2541 45.0623L13.2527 44.7087L13.3189 44.4716L13.2927 44.1216L13.2672 43.9485L13.2701 43.7965L13.2992 43.1352L13.3086 42.8558L13.3363 42.7002L13.3421 42.3961L13.3414 42.2193L13.3472 41.9152L13.3217 41.7421L13.3239 41.4133L13.3544 41.1055L13.3813 40.7731L13.3879 40.6458L13.4111 40.2886L13.4526 40.0551L13.4198 39.8325L13.4191 39.6557L13.4147 39.4542L13.3893 39.2811L13.3914 38.9522L13.4293 38.694L13.438 38.2379L13.4685 37.9301L13.4678 37.7534L13.5405 37.3889L13.5114 37.191L13.5405 36.5298L13.5463 36.2257L13.5943 35.8648L13.5652 35.667L13.6132 35.3062L13.5841 35.1083L13.5826 34.7547L13.5892 34.6274L13.5382 34.2811L13.6255 34.0156L13.5608 33.7472L13.5804 33.3653L13.576 33.1638L13.6277 32.8277L13.5986 32.6298L13.6218 32.2726L13.6204 31.919L13.6225 31.5902L13.5971 31.4171L13.6313 31.1341L13.6342 30.9821L13.6647 30.6743L13.6429 30.5259L13.6698 30.1935L13.6683 29.8399L13.6952 29.5075L13.6909 29.306L13.7323 29.0725L13.9935 28.9582L14.6366 28.8636L14.8133 28.8629L15.5306 28.7574L15.8842 28.7559L16.082 28.7268L16.2515 28.6766L16.5272 28.6613L16.704 28.6606L16.8983 28.6068L17.1034 28.6271L17.3442 28.7181L17.3769 28.9407L17.4039 29.4674L17.3631 29.8777L17.3399 30.2348L17.3406 30.4116L17.345 30.6131L17.3254 30.995L17.3261 31.1718L17.3057 31.377L17.3065 31.5537L17.2548 31.8898L17.3014 32.0346L17.2927 32.4907L17.2585 32.7737L17.2418 33.0036L17.2003 33.2371L17.1836 33.467L17.2025 33.7674L17.204 34.121L17.1763 34.2767L17.1523 34.4571L17.2025 34.6266L17.1094 35.1962L17.1145 35.5745L17.1364 35.7229L17.1131 36.0801L17.1102 36.2321L17.1117 36.5857L17.1626 36.9319L17.1146 37.2928L17.14 37.4659L17.1415 37.8194L17.0717 38.0319L17.119 38.3534L17.1132 38.6575L17.0863 38.9899L17.0135 39.3544L17.0157 39.8847L17.0667 40.231L17.0179 40.4151L17.0194 40.7686L17.0165 40.9207L17.0667 41.0902L17.0114 41.4015L17.0085 41.5536L16.9816 41.886L16.9823 42.0628L16.9307 42.3989L16.9809 42.5684L16.9853 42.7699L16.9998 42.8688L17.6145 42.7531L17.9928 42.748L18.6075 42.6323L19.3037 42.5552L19.3692 42.1413L19.3684 41.9645L19.3175 41.6182L19.3699 41.4589L19.3408 41.261L19.3706 40.7765L19.3691 40.423L19.3916 39.889L19.3873 39.6875L19.3683 39.3871L19.4127 39.0015L19.388 38.146L19.3959 37.5131L19.4148 36.9544L19.3981 36.3252L19.401 36.1731L19.4264 35.4871L19.4606 35.2041L19.5122 34.868L19.4824 34.4934L19.4809 34.1398L19.5435 33.8779L19.5355 33.6517L19.4991 33.4044L19.5478 33.2203L19.5566 32.7642L19.5609 32.1066L19.5318 31.9087L19.5376 31.6046L19.5885 31.0917L19.5543 30.5156L19.5863 29.7023L19.6321 28.8111L19.6103 28.6627L19.6241 28.5849L19.595 28.387L19.6328 28.1287L19.7739 28.0574L20.0249 28.0458L20.2191 27.992L20.6782 27.8486L20.8513 27.8232L21.1306 27.8326L21.3285 27.8035L21.5053 27.8028L21.7526 27.7664L22.6641 27.6071L22.862 27.5779L23.0919 27.5947L23.2061 27.8558L23.1188 28.1214L23.1021 28.3512L23.1072 28.7295L23.116 29.1325L23.0716 29.5181L23.1051 29.9175L23.06 30.1263L23.068 30.3525L23.0694 30.7061L23.0738 30.9076L23.0498 31.088L23.076 31.4379L23.0738 31.7667L23.0287 31.9755L23.0084 32.1806L23.063 32.5517L23.0426 32.7568L23.0404 33.0856L23.0339 33.2129L23.0033 33.5206L23.0499 33.6654L23.023 33.9979L22.9743 34.1819L22.975 34.3587L22.9554 34.7406L22.9088 35.455L22.9634 35.826L22.9154 36.1868L22.9205 36.5651L22.8718 36.7492L22.8761 36.9507L22.9023 37.3006L22.8252 37.4635L22.786 38.2274L22.7409 38.4362L22.7169 38.6166L22.7634 38.7613L22.7402 39.1185L22.6958 39.5041L22.7729 40.2003L22.7242 40.3843L22.7759 40.9074L22.6988 41.0703L22.6784 41.2755L22.6791 41.4523L22.7264 41.7738L22.7024 41.9542L23.5928 41.8232L23.8191 41.8152L24.4585 41.6959L24.9816 41.6442L24.9874 41.3402L24.9968 41.0608L24.9997 40.9088L25.0303 40.601L25.0296 40.4243L25.0106 40.1238L25.0099 39.9471L25.0121 39.6182L25.0426 39.3105L25.0695 38.9781L25.0761 38.8508L25.0993 38.4936L25.1408 38.26L25.108 38.0374L25.1073 37.8607L25.1029 37.6592L25.0775 37.486L25.0796 37.1572L25.0927 36.9026L25.1233 36.5949L25.132 36.1387L25.156 35.9583L25.2287 35.5939L25.1996 35.396L25.204 34.7384L25.2345 34.4306L25.2825 34.0698L25.2534 33.8719L25.3014 33.5111L25.2723 33.3132L25.2708 32.9597L25.2774 32.8324L25.2264 32.4861L25.3137 32.2206L25.249 31.9521L25.2686 31.5702L25.2642 31.3687L25.3159 31.0326L25.2868 30.8348L25.31 30.4776L25.3086 30.124L25.3108 29.7952L25.2606 29.6257L25.3195 29.3391L25.3311 28.7309L25.358 28.3985L25.3565 28.0449L25.3834 27.7124L25.3791 27.5109L25.4205 27.2774L25.6817 27.1632L26.3248 27.0686L26.5015 27.0679L27.2188 26.9624L27.5724 26.9609L27.7702 26.9318L27.9397 26.8816L28.2154 26.8663L28.7101 26.7936L28.94 26.8103L28.9793 26.9056L29.0077 26.9267L29.0651 27.1456L29.0673 27.676L29.0513 28.0826L29.0281 28.4398L29.0288 28.6166L29.0332 28.8181L29.0136 29.2L29.0143 29.3768L28.9939 29.5819L28.9947 29.7587L28.943 30.0948L28.9896 30.2396L28.959 30.5473L28.9809 30.6957L28.9467 30.9787L28.93 31.2086L28.8885 31.4421L28.8921 31.4668L28.8856 31.5941L28.9111 31.7673L28.8907 31.9724L28.8885 32.3012L28.9067 32.4249L28.8514 32.7362L28.898 32.881L28.8711 33.2135L28.8224 33.3975L28.8231 33.5743L28.7955 33.73L28.8246 33.9278L28.8013 34.285L28.7984 34.4371L28.7999 34.7906L28.8508 35.1369L28.8028 35.4977L28.8283 35.6709L28.8297 36.0244L28.7599 36.2368L28.8072 36.5584L28.8014 36.8625L28.7745 37.1949L28.7017 37.5594L28.7039 38.0897L28.7549 38.436L28.7061 38.62L28.7076 38.9736L28.7047 39.1256L28.7549 39.2951L28.6749 39.6101L28.6967 39.7585L28.6698 40.091L28.6705 40.2678L28.6189 40.6038L28.6691 40.7733L28.6735 40.9749L28.6495 41.1553L29.342 41.0534L29.8403 41.0054L30.0317 41.1036L30.0048 41.436L29.9982 41.5633L30.02 41.7117L29.9677 41.8711L30.0142 42.0158L29.9866 42.1715L29.9742 42.6029L29.9924 42.7266L29.9619 43.0343L29.9801 43.1579L29.943 43.593L29.9466 43.6177L29.9481 43.9713L29.9459 44.3001L29.9045 44.5336L29.9125 44.7598L29.903 45.0392L29.847 46.0329L29.8267 46.2381L29.831 46.4396L29.7787 46.5989L29.6164 46.6986L29.2454 46.7531L28.8781 46.8324L28.5565 46.8797ZM33.7095 24.6937L33.2818 24.706L32.7871 24.7788L32.5114 24.7941L32.4088 24.7839L32.3513 24.5649L32.2713 24.0208L32.2247 23.876L32.2414 23.6461L32.3251 23.3559L32.3222 22.6488L32.2676 22.2778L32.3483 22.1396L32.5178 22.0894L32.6342 22.0217L32.963 22.0239L34.645 21.7765L34.8363 21.8747L34.9534 21.9838L35.0218 22.277L34.9483 22.4647L35.0233 22.6305L35.0269 22.6552L35.0211 22.9593L34.9484 23.3238L35.0415 23.6133L34.9964 23.8221L35.0502 24.0163L34.9106 24.4412L34.6494 24.5554L33.7095 24.6937ZM37.7906 24.0934L37.4618 24.0912L36.8434 24.1822L36.6914 24.1792L36.4652 24.1873L36.4324 23.9646L36.3429 23.6999L36.332 23.6257L36.3524 23.4205L36.2811 23.2794L36.4215 23.0313L36.3815 22.7592L36.3538 22.0558L36.4229 21.6666L36.4047 21.5429L36.5247 21.5L36.7153 21.4214L37.0936 21.4163L38.726 21.1762L38.8679 21.2817L39.1334 21.369L39.2018 21.6621L39.0789 21.8571L39.1043 22.0302L39.0585 22.0622L39.0527 22.3663L39.0542 22.7199L39.1226 23.013L39.1808 23.4088L39.0789 23.5754L38.9669 23.8445L38.6563 23.966L37.7906 24.0934ZM34.6085 43.6901L34.135 43.7344L33.4919 43.829L33.3151 43.8298L32.0042 44.0226L31.7743 44.0059L31.6674 43.7942L31.7088 43.5607L31.7256 43.3308L31.7205 42.9525L31.7117 42.5495L31.7561 42.1639L31.7226 41.7645L31.7677 41.5557L31.735 41.3331L31.759 41.1527L31.7335 40.9796L31.7539 40.7744L31.7531 40.5977L31.7269 40.2478L31.7291 39.9189L31.7989 39.7065L31.7902 39.3035L31.7647 39.1304L31.7851 38.9252L31.7872 38.5964L31.7691 38.4727L31.8243 38.1614L31.7778 38.0166L31.8047 37.6842L31.8534 37.5001L31.8527 37.3233L31.8723 36.9414L31.8963 36.761L31.9188 36.227L31.8643 35.856L31.9123 35.4952L31.9072 35.1169L31.9559 34.9329L31.9515 34.7313L31.9508 34.5546L31.9253 34.3814L32.0024 34.2185L32.0417 33.4546L32.0868 33.2458L32.1108 33.0654L32.0642 32.9207L32.0875 32.5635L32.1319 32.1779L32.0547 31.4817L32.1035 31.2977L32.0518 30.7746L32.1289 30.6117L32.1493 30.4065L32.1485 30.2298L32.102 30.085L32.1012 29.9082L32.1529 29.5721L32.1514 29.2186L32.2038 29.0593L32.1783 28.8861L32.2271 28.7021L32.1805 28.5573L32.2045 28.3769L32.1819 28.0517L32.2096 27.896L32.2125 27.744L32.1899 27.4188L32.1928 27.2668L32.1179 27.1009L32.1484 26.7932L32.2008 26.6339L32.2037 26.4818L32.3798 26.3043L32.8002 26.2425L32.945 26.1959L33.1218 26.1952L33.4149 26.1268L33.5881 26.1013L33.7896 26.0969L34.0369 26.0606L34.5774 25.9558L36.4288 25.6582L37.0013 25.5993L37.2029 25.5949L37.9165 25.4646L38.4606 25.3846L38.6796 25.3271L38.9306 25.3155L39.1568 25.3075L39.306 25.4624L39.2718 25.7454L39.2936 25.8938L39.3351 26.5194L39.3569 26.6678L39.3082 26.8519L39.3089 27.0287L39.306 27.1807L39.2864 27.5626L39.3155 27.7605L39.2675 28.1213L39.2646 28.2734L39.2377 28.6058L38.994 28.6669L37.9552 28.8197L37.662 28.8881L36.0543 29.1246L35.4643 29.2367L35.4338 29.5444L35.4345 29.7211L35.4854 30.0674L35.4331 30.2267L35.4622 30.4246L35.4571 30.9055L35.4586 31.259L35.4353 31.6162L35.4113 31.7966L35.4651 31.9909L35.4273 32.2491L35.4433 32.7016L35.8885 32.6361L36.7579 32.5335L37.2205 32.4149L37.8636 32.3203L38.0688 32.3407L38.2463 32.5167L38.2405 32.8208L38.2696 33.0187L38.2601 33.298L38.2368 33.6552L38.2128 33.8356L38.1932 34.2176L38.2187 34.3907L38.1736 34.5995L38.175 34.953L38.1591 35.3597L38.1605 35.7132L38.1183 35.77L37.871 35.8064L37.5036 35.8857L37.281 35.9184L36.6663 36.0341L36.2422 36.0712L35.9701 36.1112L35.6522 36.1833L35.4296 36.216L35.3707 36.5026L35.3438 36.8351L35.3467 37.5422L35.3089 37.8004L35.2922 38.0303L35.3038 38.2813L35.2798 38.4617L35.2711 38.9178L35.2668 39.5755L35.2959 39.7733L35.4094 39.8577L35.7629 39.8563L37.2222 39.6416L37.5721 39.6154L38.1199 39.5601L38.8088 39.4335L38.9929 39.4822L38.9972 39.6837L38.9871 39.7863L38.9776 40.0657L38.982 40.2672L38.9631 40.8259L39.0104 41.1474L38.9864 41.3278L38.9587 41.4835L38.9595 41.6603L38.9398 42.0422L38.977 42.4663L38.9602 42.6962L38.926 42.9792L36.5763 43.3248L36.1842 43.4077L35.859 43.4303L35.7143 43.4769L35.1949 43.5533L34.8028 43.6362L34.6085 43.6901ZM54.2406 40.8276L54.0355 40.8073L53.3677 40.9055L53.0919 40.9208L52.9188 40.9462L52.742 40.947L52.5609 40.7462L52.5565 40.5447L52.5485 40.3184L52.5652 40.0886L52.6387 39.9009L52.5878 39.5546L52.6103 39.0206L52.6096 38.8439L52.5841 38.6707L52.5834 38.494L52.5608 38.1688L52.5921 38.0378L52.5659 37.6879L52.5855 37.306L52.5659 36.8288L52.6051 36.0649L52.664 35.7783L52.6771 35.5237L52.6335 35.2269L52.6567 34.8697L52.6807 34.6893L52.6793 34.3357L52.6538 34.1626L52.6596 33.8585L52.4406 33.916L52.2675 33.9415L52.0376 33.9247L51.2571 34.1154L50.8751 34.0957L50.451 34.1328L50.4445 34.2601L50.4488 34.4617L50.4008 34.8225L50.3987 35.1513L50.3252 35.339L50.3871 35.7595L50.3631 35.9399L50.3231 36.5269L50.2547 37.0929L50.3013 37.2377L50.2212 37.5527L50.2147 37.68L50.1631 38.0161L50.1682 38.3944L50.1216 39.1087L50.126 39.3103L50.1027 39.6674L50.1282 39.8406L50.1297 40.1941L50.1093 40.3993L50.11 40.576L50.1151 40.9543L50.0279 41.2199L49.8445 41.3479L49.6256 41.4054L49.3324 41.4738L48.9687 41.5778L48.7708 41.6069L48.5867 41.5582L48.4172 41.6084L48.2514 41.6833L47.9473 41.6775L47.1558 41.7939L46.6539 41.8172L46.5149 41.5597L46.4858 41.3618L46.552 41.1247L46.6284 40.7849L46.6167 40.534L46.6335 40.3041L46.608 40.1309L46.6356 39.9753L46.5607 39.8094L46.6691 39.5155L46.6931 39.3351L46.6392 39.1409L46.6872 38.78L46.6116 38.4374L46.685 38.2497L46.7512 38.0125L46.7505 37.8358L46.7214 37.6379L46.7447 37.2807L46.765 37.0756L46.7614 36.1917L46.789 36.036L46.7919 35.884L46.8123 35.6788L46.7621 35.5093L46.8101 35.1485L46.7875 34.8233L46.8253 34.5651L46.8311 34.261L46.8057 34.0878L46.8006 33.7096L46.8493 33.5255L46.8944 33.3167L46.8653 33.1189L46.9133 32.758L46.9315 32.0226L46.9344 31.8705L46.9329 31.517L46.9067 31.1671L47.0042 30.7989L47.0034 30.6222L46.9772 30.2723L46.9998 29.7383L47.0019 29.4095L47.0223 29.2043L47.0201 28.674L47.0266 28.5467L46.9757 28.2004L47.0455 27.988L47.0412 27.7865L47.0441 27.6345L47.071 27.302L46.9946 26.7826L47.1204 26.4356L47.0448 26.0929L47.0688 25.9125L47.068 25.7358L47.1168 25.5517L47.0629 25.3575L47.0869 25.1771L47.1138 24.8446L47.0949 24.5442L47.0796 24.2684L47.284 24.112L47.9024 24.0211L48.9128 23.8472L49.2627 23.821L49.8069 23.7409L50.0433 23.6304L50.3474 23.6362L50.602 23.6493L50.6842 23.8646L50.706 24.013L50.7562 24.1825L50.7257 24.4902L50.7228 24.6423L50.749 24.9922L50.7075 25.2257L50.7155 25.4519L50.6857 25.9364L50.6872 26.29L50.7061 26.5904L50.6574 26.7745L50.7156 27.1702L50.6916 27.3506L50.6712 27.5558L50.6938 27.881L50.6625 28.0119L50.6814 28.3123L50.7033 28.4607L50.672 28.5917L50.6516 28.7968L50.6524 28.9736L50.6 29.1329L50.6502 29.3024L50.6233 29.6349L50.5993 29.8153L50.6459 29.9601L50.6255 30.1652L50.6226 30.3173L50.6022 30.5224L50.779 30.5217L50.9769 30.4926L51.6978 30.4118L51.892 30.3579L52.1925 30.339L52.3867 30.2852L52.9097 30.2335L52.9163 30.1062L52.9257 29.8269L52.9919 29.5897L52.9665 29.4166L52.9657 29.2398L53.0348 28.8506L52.9635 28.7095L53.0399 28.3697L53.0428 28.2177L53.0421 28.0409L53.0377 27.8394L53.037 27.6626L53.0646 27.507L53.0391 27.3338L53.0661 27.0014L53.0435 26.6762L53.1097 26.439L53.066 26.1422L53.0122 25.948L53.0115 25.7712L53.0595 25.4104L53.0303 25.2125L53.0573 24.8801L53.0849 24.7244L53.0871 24.3956L53.09 24.2435L53.1562 24.0064L53.1802 23.826L53.13 23.6565L53.1329 23.5044L53.298 23.2527L53.4428 23.2061L53.6617 23.1487L54.5521 23.0177L55.0505 22.9697L55.743 22.8678L56.146 22.8591L56.3301 22.9078L56.536 23.1049L56.5331 23.257L56.5833 23.4265L56.5061 23.5894L56.5454 23.6847L56.5425 23.8368L56.568 24.0099L56.5127 24.3213L56.5389 24.6712L56.568 24.869L56.5688 25.0458L56.5448 25.2262L56.5244 25.4314L56.547 25.7566L56.5724 25.9297L56.5703 26.2585L56.571 26.4353L56.5441 26.7677L56.5448 26.9445L56.5208 27.1249L56.5252 27.3264L56.523 27.6553L56.5201 27.8073L56.4401 28.1223L56.4372 28.2743L56.435 28.6031L56.4438 29.0062L56.4736 29.3808L56.4009 29.7453L56.4307 30.1199L56.4278 30.272L56.4045 30.6292L56.4053 30.8059L56.3282 30.9689L56.3573 31.1668L56.4322 31.3326L56.3798 31.4919L56.3806 31.6687L56.4278 31.9903L56.4286 32.167L56.3522 32.5068L56.3529 32.6835L56.3195 33.1433L56.3413 33.2917L56.3319 33.571L56.3086 33.9282L56.2846 34.1086L56.3312 34.2534L56.2592 34.7947L56.3057 34.9394L56.2817 35.1198L56.2541 35.2755L56.2548 35.4523L56.2315 35.8095L56.2607 36.0073L56.2614 36.1841L56.2381 36.5413L56.2039 36.8243L56.1763 36.98L56.2025 37.3299L56.236 37.7293L56.2127 38.0865L56.2134 38.2632L56.2113 38.592L56.1873 38.7725L56.2026 39.0482L56.1967 39.3523L56.1407 39.4868L56.1451 39.6883L56.1211 39.8688L56.1502 40.0666L56.1262 40.247L56.0491 40.41L55.7632 40.5279L55.3922 40.5824L55.2474 40.629L54.9295 40.701L54.4349 40.7738L54.2406 40.8276ZM61.9027 39.6753L61.4292 39.7197L60.7861 39.8143L60.6093 39.815L59.2984 40.0079L59.0685 39.9911L58.9616 39.7794L59.003 39.5459L59.0198 39.316L59.0147 38.9378L59.0059 38.5347L59.0503 38.1492L59.0168 37.7498L59.0619 37.541L59.0292 37.3184L59.0532 37.138L59.0277 36.9649L59.0481 36.7597L59.0473 36.5829L59.0211 36.233L59.0233 35.9042L59.0931 35.6918L59.0844 35.2888L59.0589 35.1156L59.0793 34.9105L59.0815 34.5817L59.0633 34.458L59.1185 34.1466L59.072 34.0019L59.0989 33.6694L59.1476 33.4854L59.1469 33.3086L59.1665 32.9267L59.1905 32.7463L59.2131 32.2123L59.1585 31.8413L59.2065 31.4805L59.2014 31.1022L59.2501 30.9181L59.2457 30.7166L59.245 30.5398L59.2195 30.3667L59.2966 30.2037L59.3359 29.4399L59.381 29.2311L59.405 29.0507L59.3584 28.9059L59.3817 28.5488L59.4261 28.1632L59.3489 27.467L59.3977 27.283L59.346 26.7599L59.4231 26.5969L59.4435 26.3918L59.4427 26.215L59.3962 26.0703L59.3954 25.8935L59.4471 25.5574L59.4456 25.2038L59.498 25.0445L59.4725 24.8714L59.5213 24.6873L59.4747 24.5426L59.4987 24.3622L59.4761 24.037L59.5038 23.8813L59.5067 23.7293L59.4841 23.4041L59.487 23.252L59.4121 23.0862L59.4426 22.7785L59.495 22.6191L59.4979 22.4671L59.674 22.2896L60.0944 22.2277L60.2392 22.1812L60.416 22.1804L60.7091 22.1121L60.8823 22.0866L61.0838 22.0822L61.3311 22.0458L61.8716 21.9411L63.723 21.6435L64.2956 21.5845L64.4971 21.5802L65.2107 21.4499L65.7548 21.3699L65.9738 21.3124L66.2248 21.3008L66.451 21.2927L66.6002 21.4477L66.566 21.7307L66.5878 21.8791L66.6293 22.5047L66.6511 22.6531L66.6024 22.8372L66.6031 23.0139L66.6002 23.166L66.5806 23.5479L66.6097 23.7458L66.5617 24.1066L66.5588 24.2586L66.5319 24.5911L66.2882 24.6522L65.2494 24.805L64.9562 24.8734L63.3485 25.1099L62.7585 25.2219L62.728 25.5296L62.7287 25.7064L62.7796 26.0527L62.7273 26.212L62.7564 26.4099L62.7513 26.8907L62.7528 27.2443L62.7295 27.6015L62.7055 27.7819L62.7593 27.9761L62.7215 28.2344L62.7375 28.6869L63.1827 28.6214L64.0521 28.5188L64.5147 28.4002L65.1578 28.3056L65.363 28.326L65.5405 28.502L65.5347 28.8061L65.5638 29.004L65.5543 29.2833L65.531 29.6405L65.507 29.8209L65.4874 30.2028L65.5129 30.376L65.4678 30.5847L65.4693 30.9383L65.4533 31.345L65.4547 31.6985L65.4125 31.7553L65.1652 31.7916L64.7978 31.8709L64.5752 31.9037L63.9605 32.0194L63.5364 32.0565L63.2643 32.0965L62.9464 32.1685L62.7238 32.2013L62.6649 32.4879L62.638 32.8204L62.6409 33.5275L62.6031 33.7857L62.5864 34.0156L62.598 34.2666L62.574 34.447L62.5653 34.9031L62.561 35.5607L62.5901 35.7586L62.7036 35.843L63.0571 35.8415L64.5164 35.6269L64.8663 35.6007L65.4141 35.5454L66.103 35.4188L66.2871 35.4675L66.2914 35.669L66.2813 35.7716L66.2718 36.0509L66.2762 36.2524L66.2573 36.8111L66.3046 37.1327L66.2806 37.3131L66.2529 37.4688L66.2537 37.6455L66.234 38.0275L66.2712 38.4516L66.2544 38.6815L66.2203 38.9645L63.8705 39.3101L63.4784 39.393L63.1533 39.4156L63.0085 39.4621L62.4891 39.5385L62.097 39.6215L61.9027 39.6753ZM76.1501 37.6555L75.8708 37.646L75.6729 37.6751L75.4961 37.6759L75.2488 37.7122L74.3373 37.8716L74.1394 37.9007L73.9095 37.884L73.7953 37.6228L73.8826 37.3573L73.8993 37.1274L73.8942 36.7491L73.8855 36.3461L73.9298 35.9605L73.8964 35.5612L73.9414 35.3524L73.9087 35.1298L73.9327 34.9494L73.9072 34.7762L73.9276 34.5711L73.9269 34.3943L73.9007 34.0444L73.9028 33.7156L73.9727 33.5031L73.9639 33.1001L73.9385 32.927L73.9588 32.7218L73.961 32.393L73.9428 32.2694L73.9981 31.958L73.9515 31.8132L73.9784 31.4808L74.0272 31.2967L74.0264 31.12L73.9966 30.7453L74.0431 30.0309L73.9886 29.6599L74.0366 29.2991L74.0315 28.9208L74.0802 28.7368L74.0758 28.5352L74.0496 28.1853L74.1267 28.0224L74.1165 27.2658L74.1616 27.057L74.1856 26.8766L74.1391 26.7318L74.1623 26.3747L74.1819 25.9927L74.1543 25.2893L74.203 25.1052L74.2008 24.5749L74.2779 24.4119L74.2983 24.2068L74.2976 24.03L74.251 23.8853L74.2503 23.7085L74.3019 23.3724L74.3004 23.0188L74.3528 22.8595L74.3273 22.6864L74.3761 22.5023L74.3295 22.3576L74.3535 22.1772L74.3309 21.852L74.3586 21.6963L74.3615 21.5443L74.3389 21.2191L74.3418 21.067L74.2669 20.9012L74.2974 20.5935L74.3498 20.4341L74.3527 20.2821L74.5499 20.0762L75.1115 19.9431L75.2562 19.8965L75.4294 19.871L75.684 19.8841L75.8571 19.8587L76.0586 19.8543L76.306 19.8179L76.8465 19.7131L80.1717 19.2998L80.5391 19.2205L80.7086 19.1703L81.4579 19.1106L81.7016 19.0495L81.9278 19.0415L82.2741 18.9906L82.4436 18.9404L83.7545 18.7476L83.924 18.6974L84.207 18.7315L84.3423 18.9643L84.3394 19.1164L84.3867 19.4379L84.3481 19.5194L84.3634 19.7951L84.41 19.9399L84.3503 20.0497L84.3831 20.2723L84.3271 20.4069L84.3285 20.7605L84.2623 20.9976L84.2914 21.1955L84.2885 21.3475L84.314 21.5207L84.3111 21.6727L84.282 22.334L84.2726 22.6133L84.2449 22.769L84.2391 23.0731L84.2399 23.2499L84.2588 23.5503L84.2595 23.7271L84.2573 24.0559L84.2268 24.3636L84.1999 24.6961L84.1934 24.8234L84.1701 25.1806L84.1286 25.4141L84.1614 25.6367L84.1621 25.8135L84.1665 26.015L84.1919 26.1881L84.1898 26.5169L84.1519 26.7752L84.1432 27.2313L84.1622 27.5318L84.1382 27.7122L84.1149 28.0694L84.144 28.2672L84.1149 28.9285L84.1091 29.2326L84.0611 29.5934L84.0902 29.7913L84.0458 30.1768L84.0749 30.3747L84.0728 30.7035L84.0662 30.8308L84.1172 31.1771L84.0299 31.4426L84.0946 31.7111L84.075 32.093L84.0794 32.2945L84.0277 32.6306L84.0568 32.8285L84.0336 33.1857L84.035 33.5392L84.0329 33.868L84.0583 34.0412L84.0242 34.3241L84.0125 34.9323L83.9856 35.2648L83.9871 35.6183L83.9602 35.9508L83.9646 36.1523L83.9231 36.3858L83.6619 36.5L83.0189 36.5946L82.8421 36.5953L82.1248 36.7008L81.7713 36.7023L81.5734 36.7314L81.4039 36.7816L81.1282 36.7969L80.9514 36.7976L80.7572 36.8515L80.552 36.8311L80.3112 36.7402L80.2785 36.5176L80.2763 35.9873L80.317 35.577L80.3403 35.2198L80.3184 35.0714L80.3141 34.8699L80.3337 34.4879L80.333 34.3112L80.3533 34.106L80.3526 33.9292L80.4042 33.5931L80.3577 33.4484L80.3882 33.1407L80.3875 32.9639L80.4217 32.6809L80.442 32.4758L80.4835 32.2422L80.5002 32.0124L80.506 31.7083L80.4806 31.5351L80.5046 31.3547L80.5075 31.2027L80.5067 31.0259L80.4565 30.8564L80.546 30.2621L80.5409 29.8838L80.5191 29.7354L80.5423 29.3782L80.5452 29.2261L80.5438 28.8726L80.4928 28.5263L80.4914 28.1728L80.5154 27.9924L80.4892 27.6424L80.559 27.43L80.5117 27.1085L80.5175 26.8044L80.5444 26.4719L80.5677 26.1148L80.5655 25.5844L80.5182 25.2629L80.5669 25.0788L80.5655 24.7253L80.5684 24.5732L80.5182 24.4037L80.5734 24.0924L80.5763 23.9403L80.5996 23.5832L80.5989 23.4064L80.6505 23.0703L80.6003 22.9008L80.5959 22.6993L80.5814 22.6003L79.8146 22.7131L79.5884 22.7211L78.0796 22.9431L77.737 23.0187L77.7065 23.3264L77.7072 23.5032L77.7581 23.8495L77.7058 24.0088L77.7349 24.2067L77.6803 24.6948L77.6818 25.0484L77.6767 25.5292L77.6389 25.7875L77.6578 26.0879L77.6491 26.5441L77.6629 27.3254L77.6302 27.9619L77.6361 28.517L77.5786 29.1571L77.6004 29.3055L77.5997 29.9879L77.5408 30.2745L77.5634 30.5997L77.5685 30.978L77.5699 31.3315L77.5321 31.5898L77.5401 31.816L77.5518 32.067L77.5278 32.2474L77.5191 32.7035L77.4653 33.3685L77.4944 33.5663L77.4638 33.874L77.4376 34.3833L77.4471 34.9631L77.4399 35.7727L77.3941 36.6639L77.3912 36.8159L77.4312 37.088L77.3934 37.3463L77.1286 37.4357L76.8776 37.4474L76.6834 37.5012L76.3233 37.63L76.1501 37.6555ZM88.0217 35.8335L87.6223 35.8669L87.4455 35.8677L87.004 35.9579L86.8374 35.8561L86.7683 35.3861L86.8206 35.2268L86.7704 35.0573L86.7937 34.7001L86.7719 34.5517L86.7951 34.1945L86.8148 33.8126L86.8417 33.4801L86.8409 33.3034L86.8715 32.9956L86.8707 32.8189L86.8737 32.6668L86.8889 32.0834L86.9413 31.9241L86.9187 31.5989L86.918 31.4221L86.9456 31.2664L86.9973 30.9304L87.0002 30.7783L86.9813 30.4779L86.9631 30.3542L87.0503 30.0887L87.0103 29.8166L87.038 29.6609L87.0125 29.4878L87.0649 29.3285L87.035 28.9538L87.0328 28.4235L87.0816 28.2394L87.0772 28.0379L87.051 27.688L87.075 27.5076L87.0779 27.3556L87.1019 27.1751L87.1048 27.0231L87.1281 26.6659L87.1237 26.4644L87.1186 26.0861L87.1346 25.6795L87.1615 25.347L87.1178 25.0502L87.0953 24.725L87.1193 24.5446L87.168 24.3606L87.1455 24.0354L87.1484 23.8833L87.1891 23.4731L87.1738 23.1973L87.1345 23.102L87.1614 22.7696L87.1643 22.6175L87.1236 22.1687L87.1439 21.9636L87.1672 21.6064L87.2087 21.3728L87.1897 21.0724L87.2137 20.892L87.1846 20.6941L87.2086 20.5137L87.2079 20.3369L87.1861 20.1885L87.2101 20.0081L87.2508 19.5978L87.2501 19.421L87.2457 19.2195L87.269 18.8623L87.2646 18.6608L87.3162 18.3247L87.4996 18.1967L88.7857 18.0075L89.1036 17.9355L89.4288 17.9129L89.5736 17.8664L91.2307 17.6226L91.4075 17.6219L91.7749 17.5426L92.1211 17.4916L92.4994 17.4865L92.6973 17.4574L93.0261 17.4596L93.5564 17.4574L93.9631 17.4734L94.1435 17.4974L94.3348 17.5956L94.5189 17.6443L94.8659 17.7702L95.1176 17.9353L95.2347 18.0444L95.4122 18.2205L95.5861 18.3718L95.6894 18.5587L95.8851 18.8584L95.9601 19.0243L96.099 19.2818L96.1638 19.5503L96.214 19.7197L96.3282 19.9809L96.3398 20.2319L96.4191 20.5993L96.4446 20.7724L96.5094 21.0408L96.5246 21.3165L96.5152 21.5959L96.5159 21.7727L96.5465 22.3241L96.548 22.6776L96.4992 22.8617L96.5036 23.0632L96.4549 23.2472L96.452 23.3993L96.4243 23.555L96.4011 23.9122L96.356 24.1209L96.2832 24.4854L96.1545 24.9845L96.0708 25.2747L95.9413 25.597L95.7733 26.0007L95.6467 26.171L95.5173 26.4932L95.3238 26.7239L95.187 26.9967L95.0888 27.188L94.8036 27.4826L94.7018 27.6492L94.381 27.8733L94.1446 27.9839L93.8449 28.1796L93.4673 28.3615L93.1778 28.4546L92.8599 28.5266L92.5209 28.627L91.8356 28.7783L91.362 28.8227L90.8179 28.9028L90.4432 28.9326L90.4505 28.9821L90.4512 29.1589L90.4061 29.3676L90.4287 29.6928L90.3974 29.8238L90.42 30.1489L90.4171 30.301L90.4178 30.4778L90.3902 30.6334L90.3909 30.8102L90.4127 30.9586L90.3895 31.3158L90.348 31.5493L90.3422 31.8534L90.3182 32.0338L90.2877 32.3415L90.2884 32.5183L90.2397 32.7024L90.276 32.9497L90.2564 33.3316L90.3073 33.6779L90.2302 33.8409L90.2593 34.0387L90.2601 34.2155L90.2324 34.3712L90.2332 34.548L90.1881 34.7567L90.1961 34.983L90.2005 35.1845L90.1699 35.4922L90.0004 35.5424L88.0217 35.8335ZM90.5042 25.7397L91.1473 25.6452L91.4121 25.5557L91.8748 25.4371L92.037 25.3374L92.3891 24.9824L92.6248 24.695L92.7579 24.3975L92.835 24.2345L92.9077 23.8701L92.9245 23.6402L92.9907 23.403L93.0277 22.968L93.0248 22.2609L92.9797 21.6105L92.9178 21.1901L92.7753 20.9078L92.5941 20.707L92.2929 20.5492L92.063 20.5325L91.3916 20.606L90.8264 20.7144L90.6605 20.7893L90.5805 21.1043L90.5492 21.2352L90.5608 21.4862L90.5732 21.914L90.5492 22.0944L90.5187 22.4021L90.5172 22.9077L90.5042 23.1623L90.4882 23.569L90.5071 23.8694L90.5362 24.0673L90.5195 24.2972L90.4868 24.9337L90.5195 25.1563L90.4962 25.5135L90.5042 25.7397ZM103.509 33.9344L102.855 33.9548L102.537 34.0268L102.361 34.0276L102.134 34.0356L101.54 33.9461L101.338 33.9505L100.953 33.9061L100.765 33.8327L100.386 33.661L99.8864 33.3555L99.4819 33.0107L99.3895 32.8979L99.2477 32.7924L99.1517 32.6549L99.0025 32.5L98.7574 32.2076L98.7355 32.0592L98.6359 31.8969L98.5893 31.7522L98.5216 31.6358L98.4503 31.4947L98.4001 31.3252L98.3288 31.184L98.2532 30.8414L98.2066 30.6966L98.0596 30.2129L98.0836 30.0324L98.0145 29.5625L98.0523 29.3043L97.9985 29.11L97.973 28.9369L97.9425 28.3855L97.9905 28.0246L97.9614 27.8268L97.9599 27.4732L97.9344 27.3001L97.9824 26.9392L97.9148 26.8229L97.9169 26.494L97.9409 26.3136L97.9497 25.8575L97.9802 25.5498L97.9329 25.2282L97.9635 24.9205L97.938 24.7474L97.9904 24.5881L98.0144 24.4077L97.9925 24.2592L98.0165 24.0788L97.97 23.9341L98.082 23.6649L98.106 23.4845L98.0551 23.1382L98.0609 22.8341L98.1096 22.6501L98.1125 22.498L98.111 22.1445L98.119 21.5116L98.2172 21.3203L98.2194 20.9914L98.3205 20.6481L98.3692 20.464L98.4245 20.1527L98.4973 19.7882L98.602 19.4696L98.6755 19.2819L98.8508 18.9276L98.85 18.7508L98.9272 18.5879L99.0777 18.2372L99.2319 17.9113L99.3869 17.7622L99.4887 17.5956L99.7804 17.1736L100.069 16.9037L100.256 16.8004L100.411 16.6513L100.682 16.4345L100.957 16.2424L101.314 16.0889L101.459 16.0424L101.815 15.8889L102.059 15.8277L102.493 15.6881L102.836 15.6124L103.129 15.544L103.578 15.5032L103.73 15.5062L104.006 15.4909L104.409 15.4821L104.617 15.5272L104.819 15.5228L104.975 15.5505L105.371 15.6691L105.86 15.9004L106.076 15.9949L106.221 16.1251L106.526 16.3077L106.835 16.5151L106.98 16.6453L107.08 16.8075L107.276 17.1072L107.372 17.2447L107.443 17.3858L107.518 17.5517L107.647 17.9118L107.765 18.3744L107.819 18.5687L107.844 18.7418L107.867 19.067L107.864 19.219L107.936 19.5369L107.962 19.7101L107.984 20.0352L107.96 20.2157L107.957 20.3677L108.007 20.5372L108.044 20.7845L108.041 20.9366L108.042 21.2901L108.072 21.6648L108.106 22.0642L108.082 22.2446L108.09 22.6476L108.152 22.8913L108.068 23.1815L108.136 23.4747L108.085 23.8108L108.083 24.1396L108.056 24.4721L108.075 24.7725L108.048 25.105L107.995 25.2643L107.987 25.7204L108.019 25.943L107.995 26.1234L107.997 26.477L107.944 26.6363L107.824 27.5384L107.871 27.6831L107.791 27.9981L107.739 28.1575L107.754 28.4332L107.67 28.7234L107.64 29.0311L107.665 29.2043L107.631 29.4873L107.533 29.6786L107.544 29.9296L107.422 30.3013L107.29 30.7756L107.192 30.967L107.016 31.3212L106.939 31.4842L106.837 31.6508L106.81 31.8065L106.557 32.1469L106.426 32.2924L106.325 32.459L106.06 32.7253L105.793 32.9668L105.705 33.0556L105.169 33.3619L104.999 33.4121L104.808 33.4906L104.473 33.6158L104.304 33.666L104.042 33.7802L103.509 33.9344ZM102.817 30.5997L103.138 30.5524L103.47 30.4026L103.678 30.2709L103.988 29.9726L104.11 29.6009L104.207 29.2328L104.231 29.0524L104.202 28.8545L104.222 28.4726L104.246 28.2921L104.245 27.9386L104.29 27.7298L104.263 27.3799L104.312 27.1958L104.339 26.8634L104.335 26.6619L104.387 26.5026L104.358 26.3047L104.322 26.2341L104.364 26.0006L104.383 25.6187L104.349 25.0425L104.391 24.809L104.436 24.6002L104.416 24.123L104.468 23.9637L104.382 23.5469L104.426 23.1613L104.432 22.8572L104.452 22.6521L104.476 22.4717L104.426 22.3022L104.404 21.977L104.424 21.7718L104.447 21.4146L104.464 21.1848L104.417 20.8632L104.401 20.4107L104.378 20.0856L104.377 19.732L104.205 19.2519L104.084 19.118L103.878 18.9209L103.457 18.806L102.991 18.8998L102.8 18.9784L102.426 19.185L102.212 19.444L102.079 19.7415L102.023 20.0529L101.95 20.2406L101.849 20.5839L101.825 20.7644L101.804 20.9695L101.732 21.5107L101.74 21.5602L101.744 21.7617L101.721 22.1189L101.718 22.271L101.67 22.6318L101.647 22.989L101.631 23.3956L101.631 23.5724L101.607 23.7528L101.612 24.1311L101.567 24.3399L101.527 24.7502L101.503 24.9306L101.504 25.2841L101.53 25.4573L101.53 25.6341L101.584 25.8283L101.535 26.0123L101.463 26.3768L101.516 26.571L101.492 26.7515L101.532 26.8467L101.515 27.0766L101.544 27.2745L101.52 27.4549L101.549 27.6528L101.53 28.0347L101.555 28.2078L101.506 28.3919L101.606 28.5541L101.625 28.8546L101.562 29.1165L101.662 29.2787L101.764 29.9712L101.864 30.1334L101.928 30.2251L102.109 30.4259L102.251 30.5314L102.459 30.5765L102.665 30.5968L102.817 30.5997ZM112.219 32.2742L112.018 32.2786L111.841 32.2793L110.481 32.4794L110.251 32.4627L110.136 32.2016L110.203 31.9644L110.225 31.4304L110.235 31.3279L110.227 30.9248L110.271 30.5393L110.237 30.1399L110.283 29.9311L110.25 29.7085L110.274 29.5281L110.248 29.355L110.269 29.1498L110.272 28.9978L110.245 28.6479L110.248 28.3191L110.317 28.1066L110.309 27.7036L110.283 27.5305L110.304 27.3253L110.306 26.9965L110.288 26.8728L110.343 26.5615L110.296 26.4167L110.323 26.0843L110.372 25.9002L110.371 25.7234L110.388 25.4936L110.37 25.3699L110.408 25.2884L110.415 25.1611L110.437 24.6271L110.383 24.2561L110.431 23.8953L110.426 23.517L110.474 23.333L110.47 23.1315L110.444 22.7815L110.521 22.6186L110.56 21.8547L110.605 21.646L110.633 21.4903L110.586 21.3455L110.61 20.9883L110.654 20.6028L110.577 19.9066L110.626 19.7225L110.574 19.1995L110.651 19.0365L110.671 18.8314L110.671 18.6546L110.624 18.5098L110.623 18.3331L110.675 17.997L110.674 17.6434L110.726 17.4841L110.7 17.311L110.749 17.1269L110.703 16.9821L110.727 16.8017L110.704 16.4766L110.732 16.3209L110.735 16.1688L110.712 15.8437L110.715 15.6916L110.64 15.5258L110.671 15.218L110.723 15.0587L110.737 14.9809L110.983 14.7677L111.375 14.6848L111.52 14.6382L111.693 14.6127L111.944 14.6011L112.563 14.5101L113.103 14.4054L114.909 14.1398L117.336 13.808L117.707 13.7534L117.884 13.7527L118.103 13.6952L118.375 13.6552L118.775 13.6217L118.906 13.8298L118.879 14.1622L118.901 14.3106L118.868 14.9472L118.89 15.0956L118.866 15.276L118.867 15.4527L118.864 15.6048L118.82 15.9903L118.824 16.1919L118.811 16.4465L118.734 16.6094L118.675 16.8961L118.439 17.0066L116.365 17.337L114.336 17.6353L113.994 17.711L113.963 18.0187L113.964 18.1955L114.015 18.5417L113.962 18.7011L113.992 18.8989L113.986 19.3798L113.988 19.7333L113.941 20.2709L113.97 20.4688L113.989 20.7692L113.944 20.978L114.488 20.898L114.707 20.8405L115.036 20.8427L115.382 20.7918L115.785 20.783L116.304 20.7066L116.838 20.7291L117.227 20.7982L117.408 20.8222L117.624 20.9168L117.812 20.9903L118.134 21.1198L118.41 21.2813L118.503 21.394L118.705 21.5664L118.854 21.7214L118.982 21.9047L119.178 22.2044L119.228 22.3739L119.367 22.6314L119.456 22.8962L119.482 23.0693L119.6 23.3552L119.636 23.6026L119.715 23.9699L119.716 24.1467L119.781 24.4151L119.821 24.6872L119.812 24.9666L119.784 25.1222L119.793 25.5253L119.794 25.8788L119.77 26.0592L119.75 26.2644L119.726 26.4448L119.695 26.7525L119.672 27.1097L119.602 27.3221L119.529 27.6866L119.401 28.1856L119.317 28.4759L119.069 29.1946L118.939 29.3401L118.809 29.6624L118.64 29.8894L118.454 30.1695L118.331 30.3644L117.941 30.8009L117.641 30.9966L117.405 31.1072L117.08 31.3066L116.727 31.4848L116.438 31.5779L116.116 31.6252L115.777 31.7256L115.064 31.8559L113.774 32.0203L113.526 32.0567C113.015 32.1319 112.676 32.1734 112.509 32.1811L112.219 32.2742ZM114.711 28.5975L115.025 28.5008L115.311 28.3829L115.621 28.0846L115.835 27.8257L115.968 27.5281L116.07 27.3615L116.15 27.0465L116.192 26.813L116.222 26.5053L116.242 26.1234L116.236 25.5683L116.124 24.9783L116.037 24.5615L115.895 24.2792L115.738 24.0748L115.412 23.9206L115.204 23.8755L114.698 23.8741L114.108 23.9861L113.942 24.0611L113.927 24.6445L113.868 24.9311L113.841 25.2636L113.846 25.6418L113.848 25.9954L113.81 26.2537L113.818 26.4799L113.83 26.7309L113.806 26.9113L113.797 27.3674L113.761 27.9792L113.765 28.1807L113.777 28.4317L113.781 28.6332L114.46 28.6092L114.711 28.5975ZM126.963 30.4846L126.309 30.505L125.991 30.577L125.814 30.5778L125.588 30.5858L124.994 30.4963L124.792 30.5007L124.407 30.4563L124.219 30.3828L123.84 30.2112L123.34 29.9057L122.936 29.5608L122.843 29.4481L122.701 29.3426L122.605 29.2051L122.456 29.0502L122.211 28.7577L122.189 28.6093L122.09 28.4471L122.043 28.3023L121.975 28.186L121.904 28.0448L121.854 27.8753L121.783 27.7342L121.707 27.3916L121.66 27.2468L121.513 26.763L121.537 26.5826L121.468 26.1127L121.506 25.8544L121.452 25.6602L121.427 25.4871L121.396 24.9356L121.444 24.5748L121.415 24.3769L121.414 24.0234L121.388 23.8503L121.436 23.4894L121.368 23.373L121.371 23.0442L121.395 22.8638L121.403 22.4077L121.434 22.1L121.387 21.7784L121.417 21.4707L121.392 21.2976L121.444 21.1382L121.468 20.9578L121.446 20.8094L121.47 20.629L121.424 20.4842L121.536 20.2151L121.56 20.0347L121.509 19.6884L121.515 19.3843L121.563 19.2003L121.566 19.0482L121.565 18.6947L121.573 18.0618L121.671 17.8704L121.673 17.5416L121.774 17.1983L121.823 17.0142L121.878 16.7028L121.951 16.3384L122.056 16.0197L122.129 15.8321L122.304 15.4778L122.304 15.301L122.381 15.138L122.531 14.7874L122.686 14.4615L122.841 14.3123L122.942 14.1458L123.234 13.7238L123.523 13.4539L123.71 13.3506L123.865 13.2015L124.136 12.9847L124.411 12.7926L124.768 12.6391L124.912 12.5925L125.269 12.439L125.513 12.3779L125.947 12.2382L126.289 12.1626L126.583 12.0942L127.031 12.0534L127.184 12.0563L127.459 12.041L127.862 12.0323L128.071 12.0774L128.273 12.073L128.428 12.1007L128.825 12.2192L129.314 12.4505L129.53 12.5451L129.675 12.6753L129.98 12.8579L130.288 13.0652L130.434 13.1954L130.534 13.3577L130.729 13.6574L130.825 13.7949L130.897 13.936L130.972 14.1019L131.1 14.4619L131.219 14.9246L131.273 15.1188L131.298 15.292L131.321 15.6172L131.318 15.7692L131.39 16.0871L131.415 16.2602L131.438 16.5854L131.414 16.7658L131.411 16.9179L131.461 17.0874L131.498 17.3347L131.495 17.4868L131.496 17.8403L131.526 18.215L131.559 18.6143L131.535 18.7947L131.544 19.1978L131.605 19.4415L131.522 19.7317L131.59 20.0249L131.538 20.361L131.536 20.6898L131.509 21.0223L131.528 21.3227L131.501 21.6552L131.449 21.8145L131.44 22.2706L131.473 22.4932L131.449 22.6736L131.45 23.0272L131.398 23.1865L131.278 24.0886L131.325 24.2333L131.245 24.5483L131.192 24.7076L131.208 24.9833L131.124 25.2736L131.093 25.5813L131.119 25.7545L131.085 26.0374L130.986 26.2288L130.998 26.4798L130.876 26.8515L130.743 27.3258L130.645 27.5171L130.47 27.8714L130.393 28.0344L130.291 28.201L130.263 28.3566L130.01 28.6971L129.88 28.8426L129.778 29.0092L129.514 29.2755L129.246 29.517L129.158 29.6058L128.622 29.912L128.453 29.9622L128.262 30.0408L127.927 30.1659L127.757 30.2161L127.496 30.3304L126.963 30.4846ZM126.27 27.1499L126.592 27.1026L126.924 26.9527L127.132 26.8211L127.441 26.5228L127.564 26.151L127.661 25.7829L127.685 25.6025L127.656 25.4047L127.676 25.0227L127.7 24.8423L127.698 24.4888L127.743 24.28L127.717 23.9301L127.766 23.746L127.793 23.4136L127.788 23.2121L127.841 23.0527L127.812 22.8549L127.776 22.7843L127.817 22.5508L127.837 22.1689L127.803 21.5927L127.844 21.3592L127.889 21.1504L127.87 20.6732L127.922 20.5139L127.836 20.097L127.88 19.7115L127.886 19.4074L127.906 19.2022L127.93 19.0218L127.88 18.8523L127.857 18.5272L127.878 18.322L127.901 17.9648L127.918 17.7349L127.87 17.4134L127.854 16.9609L127.832 16.6357L127.83 16.2822L127.659 15.8021L127.538 15.6682L127.332 15.4711L126.911 15.3561L126.445 15.45L126.254 15.5286L125.88 15.7352L125.665 15.9942L125.532 16.2917L125.477 16.6031L125.404 16.7908L125.302 17.1341L125.278 17.3145L125.258 17.5197L125.186 18.0609L125.193 18.1104L125.198 18.3119L125.174 18.6691L125.172 18.8211L125.124 19.182L125.1 19.5391L125.084 19.9458L125.085 20.1226L125.061 20.303L125.066 20.6813L125.021 20.8901L124.98 21.3004L124.956 21.4808L124.958 21.8343L124.983 22.0075L124.984 22.1842L125.038 22.3785L124.989 22.5625L124.916 22.927L124.97 23.1212L124.946 23.3016L124.985 23.3969L124.969 23.6268L124.998 23.8247L124.974 24.0051L125.003 24.203L124.983 24.5849L125.009 24.758L124.96 24.9421L125.06 25.1043L125.079 25.4047L125.016 25.6666L125.116 25.8289L125.218 26.5214L125.317 26.6836L125.381 26.7753L125.562 26.9761L125.704 27.0815L125.913 27.1266L126.118 27.147L126.27 27.1499ZM136.786 28.6607L136.383 28.6694L136.185 28.6986L135.793 28.7815L134.779 28.9307L134.627 28.9278L134.429 28.9569L134.054 28.9867L133.828 28.9947L133.633 28.8718L133.629 28.6703L133.642 28.4156L133.587 28.0446L133.632 27.8359L133.649 27.606L133.648 27.2524L133.653 26.9483L133.653 26.7716L133.704 26.4355L133.703 26.0819L133.677 25.732L133.704 25.5763L133.703 25.3996L133.727 25.2191L133.723 25.0176L133.768 24.8088L133.771 24.6568L133.766 24.2785L133.757 23.8755L133.82 23.6136L133.759 23.3699L133.782 23.0127L133.827 22.8039L133.847 22.5988L133.85 22.4467L133.825 22.2736L133.852 21.9412L133.854 21.6123L133.853 21.4356L133.884 21.1278L133.862 20.9794L133.872 20.8769L133.885 20.6223L133.933 20.2614L133.907 19.9115L133.938 19.7806L133.99 19.4445L133.986 19.243L134.034 18.8821L134.032 18.5286L134.003 18.3307L134.002 18.1539L134.026 17.9735L134.068 17.74L134.06 17.5138L134.041 17.2133L134.065 17.0329L134.068 16.8809L134.113 16.6721L134.105 16.4458L134.108 16.2938L134.082 16.1207L134.11 15.965L134.113 15.8129L134.108 15.4347L134.156 15.0738L134.089 14.2751L134.108 13.8931L134.135 13.5607L134.196 12.9453L134.223 12.6128L134.194 12.4149L134.193 12.2382L134.164 11.8635L134.18 11.6336L134.236 11.499L134.43 11.2684L134.772 11.1928L135.391 11.1018L135.543 11.1047L135.811 11.04L136.331 10.9636L137.55 10.8348L138.536 10.6645L138.886 10.6383L139.628 10.5292L139.907 10.5386L140.158 10.527L140.543 10.5713L140.851 10.6019L141.117 10.6891L141.354 10.7553L141.659 10.9379L142.031 11.2369L142.283 11.402L142.404 11.5359L142.496 11.6486L142.639 11.9309L142.838 12.2553L142.892 12.4496L142.917 12.6227L142.996 12.8133L143.089 13.1028L143.119 13.4775L143.116 13.6295L143.141 13.8027L143.138 13.9547L143.114 14.1351L143.136 14.2835L143.134 14.6123L143.135 14.7891L143.083 15.1252L143.13 15.27L143.106 15.4504L143.092 15.5282L143.093 15.705L143.065 15.8607L143.041 16.0411L142.989 16.2004L142.922 16.4376L142.789 16.7351L142.653 17.0079L142.498 17.3338L142.224 17.7027L142.115 17.8198L142.013 17.9864L141.904 18.1035L141.745 18.2279L141.474 18.4447L141.195 18.612L140.987 18.7437L141.009 18.8921L141.271 18.9547L141.565 19.063L141.802 19.1292L142.128 19.2834L142.302 19.4348L142.472 19.5613L142.657 19.7868L142.781 19.9454L142.945 20.1993L143.031 20.4394L143.127 20.5769L143.224 20.8911L143.37 21.1981L143.393 21.5233L143.478 21.7634L143.486 21.9896L143.534 22.3111L143.534 22.4879L143.54 22.8662L143.52 23.2481L143.493 23.5806L143.494 23.7573L143.47 24.1145L143.443 24.2702L143.419 24.4506L143.391 24.6063L143.367 24.7867L143.088 25.6364L142.909 25.966L142.801 26.2599L142.695 26.4017L142.544 26.5756L142.463 26.7138L142.283 26.8666L142.146 26.9626L142.04 27.1045L141.882 27.2289L141.773 27.346L141.66 27.4384L141.498 27.5381L141.314 27.6661L141.053 27.7803L140.866 27.8836L140.721 27.9302L140.502 27.9877L140.192 28.1092L140.04 28.1063L139.68 28.235L139.305 28.2649L139.128 28.2656L138.959 28.3158L138.295 28.4388L137.969 28.4613L137.768 28.4657L137.422 28.5166L137.227 28.5705L137.153 28.5814L136.786 28.6607ZM137.998 17.4904L138.341 17.4147L138.63 17.3216L138.81 17.1688L139.057 16.9556L139.317 16.6646L139.408 16.4238L139.57 16.1474L139.642 15.7829L139.673 15.4752L139.7 15.3195L139.696 15.118L139.759 14.8561L139.694 14.5877L139.644 14.4182L139.575 14.125L139.383 13.8501L139.291 13.7373L139.067 13.5933L138.915 13.5904L138.686 13.5736L138.233 13.5897L137.615 13.6806L137.424 13.7592L137.45 13.9323L137.408 14.1658L137.416 14.3921L137.417 14.5689L137.386 14.8766L137.412 15.0497L137.385 15.3822L137.386 15.559L137.358 15.7146L137.363 16.9521L137.343 17.1572L137.354 17.4082L137.376 17.5566L137.698 17.5093L137.998 17.4904ZM137.529 25.2918L137.74 25.1848L138.369 25.1681L138.839 25.0989L139.002 24.9993L139.175 24.9738L139.337 24.8741L139.534 24.6683L139.685 24.4944L139.801 24.25L139.797 24.0484L139.88 23.7582L139.904 23.5778L139.9 23.3763L139.976 23.0365L139.96 22.584L139.874 22.1672L139.851 21.842L139.541 21.2812L139.233 21.0738L138.737 20.9698L138.483 20.9567L138.278 20.9364L137.931 20.9873L137.656 21.0026L137.309 21.0535L137.268 21.2871L137.284 21.7395L137.264 21.9447L137.229 22.0509L137.234 22.4292L137.21 22.6096L137.235 22.7827L137.208 22.9384L137.212 23.1399L137.213 23.4935L137.189 23.6739L137.17 24.0558L137.195 24.2289L137.197 24.5825L137.176 24.7876L137.181 24.9892L137.129 25.3252L137.529 25.2918ZM147.084 27.1712L146.709 27.201L146.533 27.2018L144.723 27.4426L144.493 27.4259L144.415 27.2353L144.439 27.0549L144.442 26.9029L144.547 26.5842L144.697 26.2336L144.835 25.4552L144.94 25.1365L145.02 24.8215L145.205 24.1879L145.257 23.8518L145.389 23.3775L145.417 23.2218L145.515 23.0305L145.595 22.7155L145.622 22.5598L145.622 22.383L145.674 22.2237L145.75 21.884L145.799 21.6999L145.921 21.3282L145.945 21.1478L145.962 20.9179L146.057 20.7019L146.161 20.3832L146.185 20.2028L146.283 19.8347L146.286 19.6827L146.334 19.4986L146.387 19.3393L146.46 18.9748L146.512 18.8155L146.608 18.0939L146.653 17.8851L146.779 17.5381L146.841 17.0994L146.949 16.8055L147.001 16.6462L147.028 16.3137L147.127 16.1224L147.153 15.7899L147.185 15.659L147.286 15.3156L147.309 14.9584L147.407 14.7671L147.484 14.6042L147.606 14.0556L147.682 13.7159L147.735 13.5566L147.85 13.3122L147.888 13.0539L147.937 12.8699L148.094 12.3919L148.118 12.2115L148.17 12.0522L148.198 11.8965L148.222 11.7161L148.33 11.4222L148.408 11.2592L148.439 11.1283L148.522 10.6612L148.648 10.3142L148.805 9.83627L148.853 9.65222L148.906 9.49291L148.965 9.20628L149.134 9.15608L149.382 9.1197L149.855 9.07531L150.099 9.01419L150.495 8.95598L150.961 8.86212L151.183 8.82938L151.364 8.85338L151.583 8.7959L151.979 8.73769L152.11 8.76897L152.301 8.86717L152.531 9.91982L152.612 10.464L152.683 10.6051L152.748 11.0503L152.904 11.9371L152.955 12.2834L153.027 12.6013L153.149 13.0887L153.2 13.4349L153.279 13.8023L153.28 13.9791L153.36 14.5232L153.461 14.8622L153.533 15.3569L153.609 15.6995L153.606 15.8516L153.678 16.1695L153.7 16.3179L153.783 16.71L153.872 16.9748L154.014 17.9394L154.083 18.2326L154.137 18.4268L154.246 19.1688L154.438 20.3029L154.463 20.4761L154.543 20.8434L154.572 21.2181L154.648 21.5607L154.649 21.7375L154.837 22.6701L154.858 22.8185L154.93 23.1364L154.981 23.3059L155.035 23.6769L155.061 24.0268L155.115 24.2211L155.148 24.4437L155.253 24.9842L155.329 25.5036C155.408 25.6942 155.402 25.8297 155.313 25.9102L155.041 25.9503L154.872 26.0005L154.67 26.0048L154.324 26.0558L153.783 26.1605L153.585 26.1896L153.285 26.2086L153.115 26.2588L152.872 26.3199L152.547 26.3425L152.176 26.397L152.066 26.3374L151.98 26.0973L151.89 25.6557L151.829 25.412L151.817 25.1611L151.646 23.9986L151.592 23.8043L151.044 23.8596L150.641 23.8684L149.549 24.0037L148.881 24.102L148.798 24.3922L148.672 24.7392L148.648 24.9196L148.599 25.1037L148.544 25.4151L148.366 25.9214L148.272 26.3142L148.238 26.5972L148.182 26.7318L148.108 26.9195L147.974 27.0402L147.278 27.1174L147.084 27.1712ZM150.288 20.6101L151.03 20.5009L151.161 20.3554L151.134 20.0055L151.08 19.8113L151.076 19.6098L150.982 18.9667L150.981 18.7899L150.919 18.3694L150.939 18.1643L150.827 17.5743L150.714 16.6308L150.608 15.7367L150.499 15.1715L150.312 15.2748L150.261 15.6109L150.195 16.0248L150.157 16.2831L150.092 16.697L150.022 16.9094L149.959 17.1713L149.96 17.3481L149.887 17.5358L149.845 17.7693L149.796 17.9534L149.755 18.1869L149.687 18.7528L149.687 18.9296L149.618 19.3188L149.545 19.5065L149.483 19.9452L149.459 20.1256L149.442 20.3555L149.394 20.5395L149.588 20.6625L149.786 20.6334L150.062 20.6181L150.288 20.6101ZM166.219 24.3566L166.042 24.3574L165.325 24.4629L164.971 24.4643L164.773 24.4934L164.604 24.5436L164.328 24.5589L164.151 24.5597L163.957 24.6135L163.752 24.5931L163.511 24.5022L163.479 24.2796L163.452 23.7529L163.492 23.3426L163.516 22.9854L163.515 22.8087L163.511 22.6072L163.53 22.2252L163.529 22.0485L163.55 21.8433L163.549 21.6665L163.601 21.3304L163.554 21.1857L163.563 20.7296L163.597 20.4466L163.614 20.2167L163.655 19.9832L163.672 19.7533L163.678 19.4492L163.652 19.2761L163.676 19.0957L163.679 18.9436L163.703 18.7632L163.653 18.5937L163.746 18.0241L163.741 17.6458L163.719 17.4974L163.742 17.1402L163.745 16.9882L163.744 16.6346L163.693 16.2883L163.741 15.9275L163.715 15.7544L163.714 15.4008L163.784 15.1884L163.737 14.8669L163.742 14.5628L163.769 14.2303L163.842 13.8659L163.84 13.3355L163.789 12.9893L163.838 12.8052L163.836 12.4517L163.839 12.2996L163.789 12.1301L163.844 11.8188L163.847 11.6667L163.874 11.3343L163.873 11.1575L163.925 10.8214L163.875 10.6519L163.87 10.4504L163.856 10.3515L163.089 10.4642L162.863 10.4723L162.046 10.5923L161.63 10.6789L161.649 10.9793L161.625 11.1597L161.626 11.5133L161.623 11.6653L161.652 11.8632L161.622 12.3477L161.624 12.7013L161.552 13.2425L161.581 13.4404L161.575 13.7445L161.531 14.13L161.531 14.9892L161.473 15.6293L161.454 16.188L161.422 16.8246L161.377 17.2101L161.403 17.3833L161.4 17.5353L161.376 17.7157L161.374 18.0445L161.346 18.2002L161.269 19.2223L161.197 19.7635L161.153 20.1491L161.129 20.3295L161.109 20.7114L161.057 20.8708L161.008 21.0548L160.949 21.3414L160.908 21.575L160.855 21.7343L160.719 22.1839L160.607 22.453L160.53 22.616L160.267 23.059L160.017 23.4242L159.919 23.6155L159.792 23.7858L159.44 24.1408L159.113 24.4922L158.796 24.741L158.613 24.869L158.426 24.9723L158.023 25.1578L157.169 25.5361L156.629 25.6409L156.461 25.3623L156.349 24.7723L156.309 24.3235L156.211 23.8324L156.113 23.1646L156.061 22.6416L156.042 22.3411C156.268 22.2742 156.494 22.1483 156.72 21.9636L157.156 21.4951L157.458 20.9705L157.668 20.51L157.766 20.1419L157.796 19.8342L157.869 19.4698L157.917 19.1089L157.979 18.6703L158.033 18.0054L158.032 17.8286L158.049 17.5987L158.075 17.2662L158.035 16.9942L158.072 16.3824L158.092 16.1772L158.066 15.8273L158.118 15.668L158.059 14.9187L158.128 14.7063L158.152 14.5259L158.106 14.3811L158.104 14.0275L158.149 13.642L158.096 12.9422L158.145 12.7581L158.118 12.2314L158.195 12.0685L158.24 11.8597L158.24 11.6829L158.193 11.5381L158.192 11.3614L158.269 11.0216L158.267 10.6681L158.32 10.5088L158.294 10.3356L158.343 10.1516L158.272 10.0105L158.296 9.83004L158.298 9.50122L158.325 9.34554L158.328 9.1935L158.256 8.8756L158.284 8.71992L158.209 8.55406L158.264 8.2427L158.317 8.08338L158.32 7.93134L158.566 7.71818L158.955 7.61051L159.099 7.56394L159.52 7.50209L159.774 7.51518L159.948 7.48972L160.149 7.48534L161.072 7.4002L162.372 7.13318L163.446 7.05094L163.813 6.97163L163.983 6.92143L164.485 6.89814L164.729 6.83702L164.955 6.82901L165.301 6.77808L165.471 6.72788L166.781 6.53506L166.951 6.48486L167.234 6.51904L167.369 6.75183L167.366 6.90387L167.414 7.22541L167.375 7.30689L167.39 7.5826L167.437 7.72736L167.377 7.83721L167.41 8.05982L167.354 8.1944L167.355 8.54795L167.289 8.78511L167.318 8.98298L167.315 9.13502L167.341 9.30816L167.338 9.4602L167.309 10.1215L167.3 10.4008L167.272 10.5565L167.266 10.8606L167.267 11.0374L167.286 11.3378L167.286 11.5146L167.284 11.8434L167.254 12.1511L167.227 12.4836L167.22 12.6109L167.197 12.9681L167.156 13.2016L167.188 13.4242L167.189 13.601L167.193 13.8025L167.219 13.9756L167.217 14.3044L167.179 14.5627L167.164 15.3229L167.14 15.5033L167.068 15.8678L167.097 16.0656L167.068 16.7269L167.062 17.031L167.014 17.3918L167.043 17.5897L166.995 17.9505L167.024 18.1484L167.026 18.5019L167.019 18.6292L167.07 18.9755L166.983 19.241L167.047 19.5095L167.028 19.8914L167.032 20.0929L166.98 20.429L167.01 20.6269L166.986 20.9841L166.988 21.3376L166.986 21.6664L167.011 21.8396L166.977 22.1226L166.965 22.7307L166.938 23.0632L166.94 23.4167L166.913 23.7492L166.917 23.9507L166.876 24.1842L166.615 24.2984L166.219 24.3566ZM174.781 17.4623L173.385 17.5918L172.89 17.6646L172.441 17.7054L172.268 17.7308L171.893 17.7607L171.741 17.581L171.672 17.2878L171.692 17.0827L171.716 16.7255L171.732 16.4956L171.799 16.2584L171.945 15.7063L171.944 15.5295L172.207 14.9097L172.41 14.5765L172.456 14.3677L172.557 14.2011L172.736 13.8716L172.869 13.574L173.028 13.4496L173.098 13.2372L173.203 13.0954L173.256 12.936L173.336 12.7978L173.491 12.4719L173.616 12.1249L173.673 11.9903L173.724 11.6542L173.826 11.4876L173.91 11.1974L173.93 10.9922L174.027 10.6241L174.026 10.2706L174.054 10.1149L174.03 9.61293L173.947 9.22082L173.858 8.95603L173.744 8.69487L173.513 8.50137L173.198 8.42136L172.735 8.53995L172.506 8.7L172.249 9.01573L172.156 9.40857L172.135 9.61372L172.172 10.0378L172.148 10.2182L172.183 10.7944L172.184 11.1479L172.004 11.3007L171.863 11.372L171.439 11.4091L171.026 11.5204L169.591 11.7315L169.227 11.6587L169.084 11.3765L169.085 10.6941L169.084 10.3406L169.079 10.139L169.106 9.80659L169.073 9.58398L169.15 9.24425L169.195 9.03547L169.194 8.85869L169.243 8.67464L169.347 8.17923L169.35 8.02719L169.476 7.68018L169.553 7.51723L169.711 7.21605L169.788 7.05309L169.999 6.76937L170.136 6.67335L170.312 6.49584L170.442 6.35034L170.795 6.1721L170.922 6.00187L171.25 5.82726L171.642 5.74432L171.829 5.64101L172.009 5.66501L172.316 5.51878L172.712 5.46057L173.03 5.38854L173.175 5.34198L173.804 5.32523L174.299 5.42924L174.635 5.48088L174.841 5.50124L175.188 5.62708L175.393 5.64745L175.577 5.69618L175.772 5.81912L175.949 5.99516L176.403 6.33269L176.503 6.49491L176.574 6.63604L176.891 7.0696L176.952 7.3133L177.194 7.75778L177.312 8.04367L177.374 8.64092L177.352 9.17489L177.382 9.54953L177.354 9.70521L177.355 9.88199L177.282 10.2465L177.258 10.4269L177.241 10.6567L177.193 10.8408L177.12 11.2053L177.142 11.3537L176.988 11.6796L176.876 11.9487L176.792 12.239L176.669 12.434L176.561 12.7279L176.512 12.9119L176.329 13.2167L176.225 13.5354L176.035 13.7907L175.912 14.1625L175.811 14.3291L175.555 14.9983L175.503 15.1577L175.373 15.4799L175.346 15.6356L175.256 16.0532L175.225 16.3609L175.155 16.5733L175.128 16.729L175.082 16.9378L175.101 17.2382L175.003 17.4296L174.781 17.4623ZM174.475 23.1169L174.373 23.1068L173.556 23.2268L172.984 23.2858L172.535 23.3265L172.284 23.3382L171.955 23.336L171.8 23.3083L171.728 23.1672L171.634 22.5241L171.668 22.2412L171.614 22.0469L171.642 21.8912L171.637 21.513L171.607 20.4559L171.623 20.0493L171.655 19.9183L171.806 19.7445L172.099 19.6761L172.548 19.6353L173.195 19.5655L173.393 19.5364L173.636 19.4753L173.788 19.4782L174.184 19.4199L174.559 19.3901L174.732 19.3646L174.973 19.4556L175.2 19.6243L175.275 19.967L175.256 20.3489L175.25 20.653L175.251 21.0065L175.218 21.4663L175.258 21.7384L175.252 22.0424L175.275 22.3676L175.23 22.5764L175.047 22.8812L174.698 23.0842L174.475 23.1169Z" fill="white"/>
</svg>
